<svg width="50" height="40" viewBox="0 0 50 40" fill="none" xmlns="http://www.w3.org/2000/svg">
<path d="M9.05911 31H6.71311C5.78378 31 5.23978 30.558 5.08111 29.674L1.13711 10.226C1.11444 10.1127 1.09178 10.0107 1.06911 9.92C1.06911 9.80667 1.06911 9.70467 1.06911 9.614C1.06911 9.206 1.20511 8.866 1.47711 8.594C1.74911 8.322 2.10044 8.186 2.53111 8.186C2.89378 8.186 3.19978 8.29933 3.44911 8.526C3.72111 8.73 3.89111 9.02467 3.95911 9.41L6.30511 21.31C6.50911 22.3527 6.69044 23.3613 6.84911 24.336C7.03044 25.3107 7.21178 26.274 7.39311 27.226C7.57444 28.178 7.74444 29.1527 7.90311 30.15C8.06178 29.1527 8.20911 28.178 8.34511 27.226C8.50378 26.274 8.65111 25.3107 8.78711 24.336C8.94578 23.3613 9.11578 22.364 9.29711 21.344L11.2691 9.648C11.4278 8.74133 11.9718 8.288 12.9011 8.288H15.1451C16.0518 8.288 16.5958 8.74133 16.7771 9.648L18.7831 21.344C18.9644 22.364 19.1231 23.3613 19.2591 24.336C19.3951 25.288 19.5311 26.24 19.6671 27.192C19.8258 28.1213 19.9844 29.0733 20.1431 30.048C20.3018 29.096 20.4604 28.144 20.6191 27.192C20.8004 26.24 20.9704 25.288 21.1291 24.336C21.3104 23.3613 21.5031 22.364 21.7071 21.344L24.0531 9.41C24.0984 9.02467 24.2571 8.73 24.5291 8.526C24.8011 8.29933 25.1184 8.186 25.4811 8.186C25.9118 8.186 26.2518 8.322 26.5011 8.594C26.7731 8.866 26.9091 9.206 26.9091 9.614C26.9091 9.70467 26.8978 9.80667 26.8751 9.92C26.8751 10.0107 26.8638 10.1127 26.8411 10.226L22.8971 29.674C22.7384 30.558 22.1944 31 21.2651 31H18.9871C18.0804 31 17.5364 30.5467 17.3551 29.64L15.4511 18.556C15.2698 17.4453 15.0998 16.38 14.9411 15.36C14.7824 14.34 14.6238 13.32 14.4651 12.3C14.3291 11.28 14.1818 10.26 14.0231 9.24C13.8871 10.26 13.7398 11.28 13.5811 12.3C13.4224 13.2973 13.2638 14.306 13.1051 15.326C12.9691 16.3233 12.7991 17.3773 12.5951 18.488L10.6911 29.64C10.5098 30.5467 9.96578 31 9.05911 31Z" fill="black"/>
<path d="M28.92 9.639C29.0942 8.68952 29.9218 8 30.8872 8H36C37.1046 8 38 8.89543 38 10V29C38 30.1046 37.1046 31 36 31H27.4004C26.1513 31 25.2078 29.8676 25.4333 28.639L28.92 9.639Z" fill="black"/>
<path d="M40 10C40 8.89543 40.8954 8 42 8H48C49.1046 8 50 8.89543 50 10V29C50 30.1046 49.1046 31 48 31H42C40.8954 31 40 30.1046 40 29V10Z" fill="black"/>
</svg>
