<svg width="44" height="21" viewBox="0 0 44 21" fill="none" xmlns="http://www.w3.org/2000/svg">
<path d="M7.32518 21H5.17438C4.32237 21 3.82364 20.5931 3.67817 19.7794L0.062341 1.87779C0.0415606 1.77347 0.0207803 1.67958 0 1.59613V1.31446C0 0.938897 0.124682 0.625931 0.374051 0.375558C0.623419 0.125186 0.945517 0 1.34035 0C1.67284 0 1.95338 0.104322 2.18197 0.312965C2.43134 0.500745 2.58719 0.771982 2.64953 1.12668L4.80033 12.0805C4.98735 13.0402 5.1536 13.9687 5.29906 14.8659C5.46531 15.763 5.63155 16.6498 5.7978 17.5261C5.96404 18.4024 6.1199 19.2996 6.26536 20.2176C6.41083 19.2996 6.5459 18.4024 6.67058 17.5261C6.81605 16.6498 6.95112 15.763 7.07581 14.8659C7.22127 13.9687 7.37712 13.0507 7.54337 12.1118L9.35129 1.34575C9.49675 0.511176 9.99549 0.0938885 10.8475 0.0938885H12.9048C13.736 0.0938885 14.2347 0.511176 14.401 1.34575L16.2401 12.1118C16.4063 13.0507 16.5518 13.9687 16.6765 14.8659L17.0505 17.4948C17.196 18.3502 17.3414 19.2265 17.4869 20.1237L17.9233 17.4948C18.0895 16.6185 18.2454 15.7422 18.3909 14.8659C18.5571 13.9687 18.7337 13.0507 18.9208 12.1118L21.0716 1.12668C21.1131 0.771982 21.2586 0.500745 21.508 0.312965C21.7573 0.104322 22.0483 0 22.3807 0C22.7756 0 23.0873 0.125186 23.3159 0.375558C23.5652 0.625931 23.6899 0.938897 23.6899 1.31446C23.6899 1.39791 23.6795 1.4918 23.6588 1.59613C23.6588 1.67958 23.6484 1.77347 23.6276 1.87779L20.0118 19.7794C19.8663 20.5931 19.3676 21 18.5155 21H16.4271C15.5959 21 15.0971 20.5827 14.9309 19.7481L13.1853 9.54545C13.0191 8.5231 12.8632 7.54247 12.7178 6.60358L12.2814 3.78689C12.1567 2.84799 12.0216 1.90909 11.8761 0.970192C11.7515 1.90909 11.6164 2.84799 11.4709 3.78689C11.3254 4.70492 11.18 5.63338 11.0345 6.57228C10.9098 7.49031 10.754 8.46051 10.567 9.48286L8.82138 19.7481C8.65513 20.5827 8.1564 21 7.32518 21Z" fill="#030303"/>
<path d="M25.1131 1.38814C25.2505 0.647014 25.8946 0.109538 26.6454 0.109538H31.8433C32.7041 0.109538 33.4019 0.810136 33.4019 1.67437V19.4352C33.4019 20.2994 32.7041 21 31.8433 21H23.3542C22.3793 21 21.6437 20.1113 21.822 19.1489L25.1131 1.38814Z" fill="#030303"/>
<path d="M36.2852 0.109538C35.4244 0.109538 34.7266 0.810135 34.7266 1.67437V19.4352C34.7266 20.2994 35.4244 21 36.2852 21H42.4415C43.3022 21 44 20.2994 44 19.4352V1.67437C44 0.810136 43.3022 0.109538 42.4415 0.109538H36.2852Z" fill="#030303"/>
</svg>
